<?xml version="1.0" encoding="UTF-8" standalone="no"?>
<!-- Created with Inkscape (http://www.inkscape.org/) -->

<svg
   width="210mm"
   height="297mm"
   viewBox="0 0 210 297"
   version="1.1"
   id="svg1"
   inkscape:version="1.3.2 (091e20e, 2023-11-25, custom)"
   sodipodi:docname="Skeleton.svg"
   xmlns:inkscape="http://www.inkscape.org/namespaces/inkscape"
   xmlns:sodipodi="http://sodipodi.sourceforge.net/DTD/sodipodi-0.dtd"
   xmlns="http://www.w3.org/2000/svg"
   xmlns:svg="http://www.w3.org/2000/svg">
  <sodipodi:namedview
     id="namedview1"
     pagecolor="#505050"
     bordercolor="#eeeeee"
     borderopacity="1"
     inkscape:showpageshadow="0"
     inkscape:pageopacity="0"
     inkscape:pagecheckerboard="0"
     inkscape:deskcolor="#505050"
     inkscape:document-units="mm"
     inkscape:zoom="0.72426347"
     inkscape:cx="396.95499"
     inkscape:cy="561.25984"
     inkscape:window-width="1920"
     inkscape:window-height="1009"
     inkscape:window-x="-8"
     inkscape:window-y="-8"
     inkscape:window-maximized="1"
     inkscape:current-layer="layer3"
     showguides="true" />
  <defs
     id="defs1">
    <inkscape:path-effect
       effect="fillet_chamfer"
       id="path-effect108"
       is_visible="true"
       lpeversion="1"
       nodesatellites_param="F,0,0,1,0,0,0,1 @ F,0,0,1,0,14.612546,0,1 @ F,0,0,1,0,0,0,1 @ F,0,0,1,0,30.101845,0,1"
       radius="0"
       unit="px"
       method="auto"
       mode="F"
       chamfer_steps="1"
       flexible="false"
       use_knot_distance="true"
       apply_no_radius="true"
       apply_with_radius="true"
       only_selected="false"
       hide_knots="false" />
    <inkscape:path-effect
       effect="fillet_chamfer"
       id="path-effect77"
       is_visible="true"
       lpeversion="1"
       nodesatellites_param="F,0,0,1,0,0,0,1 @ F,0,0,1,0,0,0,1 @ F,0,0,1,0,0,0,1 @ F,0,0,1,0,0,0,1"
       radius="0"
       unit="px"
       method="auto"
       mode="F"
       chamfer_steps="1"
       flexible="false"
       use_knot_distance="true"
       apply_no_radius="true"
       apply_with_radius="true"
       only_selected="false"
       hide_knots="false" />
  </defs>
  <g
     inkscape:groupmode="layer"
     id="layer6"
     inkscape:label="Layer -3" />
  <g
     inkscape:groupmode="layer"
     id="layer5"
     inkscape:label="Layer -2" />
  <g
     inkscape:groupmode="layer"
     id="layer4"
     inkscape:label="Layer -1"
     sodipodi:insensitive="true">
    <g
       id="g54"
       transform="matrix(1.3939393,0,0,0.71698111,-27.110689,42.851983)">
      <path
         style="fill:#999999;stroke-width:0.279889"
         id="path53"
         sodipodi:type="arc"
         sodipodi:cx="81.099625"
         sodipodi:cy="124.7546"
         sodipodi:rx="9.4981546"
         sodipodi:ry="8.5848713"
         sodipodi:start="0"
         sodipodi:end="6.1253242"
         sodipodi:open="true"
         sodipodi:arc-type="arc"
         d="m 90.597779,124.7546 a 9.4981546,8.5848713 0 0 1 -9.123404,8.57819 9.4981546,8.5848713 0 0 1 -9.843333,-7.90128 9.4981546,8.5848713 0 0 1 8.346666,-9.20168 9.4981546,8.5848713 0 0 1 10.501969,7.17517" />
      <path
         style="fill:#b3b3b3;stroke-width:0.228202"
         id="path54"
         sodipodi:type="arc"
         sodipodi:cx="84.570114"
         sodipodi:cy="123.65867"
         sodipodi:rx="11.142065"
         sodipodi:ry="9.6808109"
         sodipodi:start="0"
         sodipodi:end="6.1253242"
         sodipodi:open="true"
         sodipodi:arc-type="arc"
         d="m 95.712179,123.65867 a 11.142065,9.6808109 0 0 1 -10.702454,9.67327 11.142065,9.6808109 0 0 1 -11.546986,-8.90995 11.142065,9.6808109 0 0 1 9.791281,-10.37636 11.142065,9.6808109 0 0 1 12.319616,8.09115" />
    </g>
    <g
       id="g57"
       transform="matrix(1.3939393,0,0,0.71698111,-25.649434,61.482979)">
      <path
         style="fill:#999999;stroke-width:0.279889"
         id="path56"
         sodipodi:type="arc"
         sodipodi:cx="81.099625"
         sodipodi:cy="124.7546"
         sodipodi:rx="9.4981546"
         sodipodi:ry="8.5848713"
         sodipodi:start="0"
         sodipodi:end="6.1253242"
         sodipodi:open="true"
         sodipodi:arc-type="arc"
         d="m 90.597779,124.7546 a 9.4981546,8.5848713 0 0 1 -9.123404,8.57819 9.4981546,8.5848713 0 0 1 -9.843333,-7.90128 9.4981546,8.5848713 0 0 1 8.346666,-9.20168 9.4981546,8.5848713 0 0 1 10.501969,7.17517" />
      <path
         style="fill:#b3b3b3;stroke-width:0.228202"
         id="path57"
         sodipodi:type="arc"
         sodipodi:cx="84.570114"
         sodipodi:cy="123.65867"
         sodipodi:rx="11.142065"
         sodipodi:ry="9.6808109"
         sodipodi:start="0"
         sodipodi:end="6.1253242"
         sodipodi:open="true"
         sodipodi:arc-type="arc"
         d="m 95.712179,123.65867 a 11.142065,9.6808109 0 0 1 -10.702454,9.67327 11.142065,9.6808109 0 0 1 -11.546986,-8.90995 11.142065,9.6808109 0 0 1 9.791281,-10.37636 11.142065,9.6808109 0 0 1 12.319616,8.09115" />
    </g>
    <g
       id="g59"
       transform="matrix(1.3939393,0,0,0.71698111,-25.649434,79.748662)">
      <path
         style="fill:#999999;stroke-width:0.279889"
         id="path58"
         sodipodi:type="arc"
         sodipodi:cx="81.099625"
         sodipodi:cy="124.7546"
         sodipodi:rx="9.4981546"
         sodipodi:ry="8.5848713"
         sodipodi:start="0"
         sodipodi:end="6.1253242"
         sodipodi:open="true"
         sodipodi:arc-type="arc"
         d="m 90.597779,124.7546 a 9.4981546,8.5848713 0 0 1 -9.123404,8.57819 9.4981546,8.5848713 0 0 1 -9.843333,-7.90128 9.4981546,8.5848713 0 0 1 8.346666,-9.20168 9.4981546,8.5848713 0 0 1 10.501969,7.17517" />
      <path
         style="fill:#b3b3b3;stroke-width:0.228202"
         id="path59"
         sodipodi:type="arc"
         sodipodi:cx="84.570114"
         sodipodi:cy="123.65867"
         sodipodi:rx="11.142065"
         sodipodi:ry="9.6808109"
         sodipodi:start="0"
         sodipodi:end="6.1253242"
         sodipodi:open="true"
         sodipodi:arc-type="arc"
         d="m 95.712179,123.65867 a 11.142065,9.6808109 0 0 1 -10.702454,9.67327 11.142065,9.6808109 0 0 1 -11.546986,-8.90995 11.142065,9.6808109 0 0 1 9.791281,-10.37636 11.142065,9.6808109 0 0 1 12.319616,8.09115" />
    </g>
  </g>
  <g
     inkscape:groupmode="layer"
     id="layer3"
     inkscape:label="Layer 0">
    <g
       id="g74"
       transform="rotate(16.82888,233.37278,-89.212375)">
      <path
         style="fill:#999999;fill-opacity:1;stroke:#999999;stroke-width:0.270324"
         id="path73"
         sodipodi:type="arc"
         sodipodi:cx="140.28043"
         sodipodi:cy="164.75642"
         sodipodi:rx="5.8421469"
         sodipodi:ry="5.8421197"
         sodipodi:start="0"
         sodipodi:end="6.1253242"
         sodipodi:open="true"
         sodipodi:arc-type="arc"
         d="m 146.12257,164.75642 a 5.8421469,5.8421197 0 0 1 -5.61164,5.83757 5.8421469,5.8421197 0 0 1 -6.05446,-5.37692 5.8421469,5.8421197 0 0 1 5.13389,-6.26187 5.8421469,5.8421197 0 0 1 6.45957,4.88281" />
      <rect
         style="fill:#999999;fill-opacity:1;stroke:#999999;stroke-width:0.201899"
         id="rect73"
         width="5.8540587"
         height="25.925116"
         x="176.24576"
         y="122.40143"
         transform="rotate(15.804793)" />
      <path
         style="fill:#999999;fill-opacity:1;stroke:#999999;stroke-width:0.212501"
         id="path74"
         sodipodi:type="arc"
         sodipodi:cx="131.33022"
         sodipodi:cy="193.79884"
         sodipodi:rx="4.5924873"
         sodipodi:ry="4.5924659"
         sodipodi:start="0"
         sodipodi:end="6.1253242"
         sodipodi:open="true"
         sodipodi:arc-type="arc"
         d="m 135.9227,193.79884 a 4.5924873,4.5924659 0 0 1 -4.41129,4.58889 4.5924873,4.5924659 0 0 1 -4.75938,-4.22678 4.5924873,4.5924659 0 0 1 4.03572,-4.92242 4.5924873,4.5924659 0 0 1 5.07785,3.83835" />
      <rect
         style="fill:#999999;fill-opacity:1;stroke:#999999;stroke-width:0.201899"
         id="rect74"
         width="5.8540587"
         height="25.925116"
         x="-101.64173"
         y="213.89537"
         transform="rotate(-59.195208)" />
      <path
         style="fill:#b3b3b3;fill-opacity:1;stroke:#b3b3b3;stroke-width:0.270324"
         id="path71"
         sodipodi:type="arc"
         sodipodi:cx="141.74168"
         sodipodi:cy="164.02579"
         sodipodi:rx="5.8421469"
         sodipodi:ry="5.8421197"
         sodipodi:start="0"
         sodipodi:end="6.1253242"
         sodipodi:open="true"
         sodipodi:arc-type="arc"
         d="m 147.58383,164.02579 a 5.8421469,5.8421197 0 0 1 -5.61164,5.83757 5.8421469,5.8421197 0 0 1 -6.05446,-5.37693 5.8421469,5.8421197 0 0 1 5.13388,-6.26186 5.8421469,5.8421197 0 0 1 6.45958,4.8828" />
      <rect
         style="fill:#b3b3b3;fill-opacity:1;stroke:#b3b3b3;stroke-width:0.201899"
         id="rect71"
         width="5.8540587"
         height="25.925116"
         x="177.45277"
         y="121.30043"
         transform="rotate(15.804792)" />
      <path
         style="fill:#b3b3b3;fill-opacity:1;stroke:#b3b3b3;stroke-width:0.212501"
         id="path72"
         sodipodi:type="arc"
         sodipodi:cx="132.79147"
         sodipodi:cy="193.06821"
         sodipodi:rx="4.5924873"
         sodipodi:ry="4.5924659"
         sodipodi:start="0"
         sodipodi:end="6.1253242"
         sodipodi:open="true"
         sodipodi:arc-type="arc"
         d="m 137.38396,193.06821 a 4.5924873,4.5924659 0 0 1 -4.41129,4.58889 4.5924873,4.5924659 0 0 1 -4.75939,-4.22678 4.5924873,4.5924659 0 0 1 4.03573,-4.92243 4.5924873,4.5924659 0 0 1 5.07785,3.83835" />
      <rect
         style="fill:#b3b3b3;fill-opacity:1;stroke:#b3b3b3;stroke-width:0.201899"
         id="rect72"
         width="5.8540587"
         height="25.925116"
         x="-100.26585"
         y="214.77631"
         transform="rotate(-59.195208)" />
    </g>
    <rect
       style="fill:#ffe680;fill-opacity:1;stroke:#ffe680;stroke-width:0.24037"
       id="rect75"
       width="39.112759"
       height="11.348954"
       x="142.09491"
       y="240.7296"
       ry="0" />
    <path
       style="fill:#ffe680;fill-opacity:1;stroke:#ffe680;stroke-width:0.264583"
       id="path76"
       sodipodi:type="arc"
       sodipodi:cx="141.7417"
       sodipodi:cy="245.49077"
       sodipodi:rx="5.1143913"
       sodipodi:ry="9.1328411"
       sodipodi:start="0"
       sodipodi:end="6.1253242"
       sodipodi:open="true"
       sodipodi:arc-type="arc"
       d="m 146.85609,245.49077 a 5.1143913,9.1328411 0 0 1 -4.9126,9.12573 5.1143913,9.1328411 0 0 1 -5.30026,-8.40562 5.1143913,9.1328411 0 0 1 4.49436,-9.78902 5.1143913,9.1328411 0 0 1 5.65491,7.63317" />
    <path
       style="fill:#ffe680;fill-opacity:1;stroke:#ffe680;stroke-width:0.264583"
       id="path77"
       sodipodi:type="arc"
       sodipodi:cx="179.369"
       sodipodi:cy="246.22139"
       sodipodi:rx="5.1143913"
       sodipodi:ry="9.1328411"
       sodipodi:start="0"
       sodipodi:end="6.1253242"
       sodipodi:open="true"
       sodipodi:arc-type="arc"
       d="m 184.48339,246.22139 a 5.1143913,9.1328411 0 0 1 -4.9126,9.12573 5.1143913,9.1328411 0 0 1 -5.30025,-8.40562 5.1143913,9.1328411 0 0 1 4.49435,-9.78902 5.1143913,9.1328411 0 0 1 5.65491,7.63317" />
    <path
       id="rect225"
       style="fill:#cccccc;stroke:#cccccc;stroke-width:0.264583"
       d="m 155.25828,194.71217 5.84502,-16.0738 6.21034,16.43911 v 46.02951 h -12.42067 z"
       sodipodi:nodetypes="cccccc" />
  </g>
  <g
     inkscape:label="Layer 1"
     inkscape:groupmode="layer"
     id="layer1"
     sodipodi:insensitive="true">
    <g
       id="g66"
       transform="translate(13.516605,-24.841328)">
      <path
         style="fill:#d4aa00;fill-opacity:1;stroke-width:0.174533"
         id="path66"
         sodipodi:type="arc"
         sodipodi:cx="58.608856"
         sodipodi:cy="204.369"
         sodipodi:rx="29.749077"
         sodipodi:ry="29.749077"
         sodipodi:start="0"
         sodipodi:end="6.2816031"
         sodipodi:arc-type="slice"
         d="m 88.357933,204.369 a 29.749077,29.749077 0 0 1 -29.737309,29.74908 29.749077,29.749077 0 0 1 -29.760835,-29.72554 29.749077,29.749077 0 0 1 29.713765,-29.77259 29.749077,29.749077 0 0 1 29.784342,29.70198 l -29.74904,0.0471 z" />
      <path
         style="fill:#ffd42a;fill-opacity:1;stroke-width:0.174533"
         id="path60"
         sodipodi:type="arc"
         sodipodi:cx="59.704796"
         sodipodi:cy="203.63838"
         sodipodi:rx="29.749077"
         sodipodi:ry="29.749077"
         sodipodi:start="0"
         sodipodi:end="6.2816031"
         sodipodi:arc-type="slice"
         d="m 89.453873,203.63838 a 29.749077,29.749077 0 0 1 -29.73731,29.74908 29.749077,29.749077 0 0 1 -29.760835,-29.72554 29.749077,29.749077 0 0 1 29.713766,-29.77259 29.749077,29.749077 0 0 1 29.784341,29.70198 l -29.749039,0.0471 z" />
      <path
         style="fill:#483e37;fill-opacity:1;stroke-width:0.148814"
         id="path63"
         sodipodi:type="arc"
         sodipodi:cx="-62.441959"
         sodipodi:cy="-202.37575"
         sodipodi:rx="25.365313"
         sodipodi:ry="25.365313"
         sodipodi:start="0.033556977"
         sodipodi:end="0.031258463"
         sodipodi:arc-type="arc"
         d="m -37.090927,-201.52472 a 25.365313,25.365313 0 0 1 -26.187488,24.50049 25.365313,25.365313 0 0 1 -24.515538,-26.17341 25.365313,25.365313 0 0 1 26.159314,-24.53057 25.365313,25.365313 0 0 1 24.545601,26.14521"
         sodipodi:open="true"
         transform="rotate(-179.19833)" />
      <path
         style="fill:#6c5d53;fill-opacity:1;stroke-width:0.148814"
         id="path61"
         sodipodi:type="arc"
         sodipodi:cx="59.339485"
         sodipodi:cy="203.27307"
         sodipodi:rx="25.365313"
         sodipodi:ry="25.365313"
         sodipodi:start="0.033556977"
         sodipodi:end="2.4208557"
         sodipodi:arc-type="arc"
         d="m 84.690518,204.12409 a 25.365313,25.365313 0 0 1 -16.806235,23.03173 25.365313,25.365313 0 0 1 -27.602254,-7.1432"
         sodipodi:open="true" />
      <path
         style="fill:#6c5d53;fill-opacity:1;stroke-width:0.148814"
         id="path62"
         sodipodi:type="arc"
         sodipodi:cx="-62.441959"
         sodipodi:cy="-202.37575"
         sodipodi:rx="25.365313"
         sodipodi:ry="25.365313"
         sodipodi:start="0.033556977"
         sodipodi:end="2.4208557"
         sodipodi:arc-type="arc"
         d="m -37.090927,-201.52472 a 25.365313,25.365313 0 0 1 -16.806234,23.03172 25.365313,25.365313 0 0 1 -27.602255,-7.1432"
         sodipodi:open="true"
         transform="rotate(-179.19833)" />
      <path
         style="fill:#d4aa00;fill-opacity:1;stroke-width:0.0416524"
         id="path65"
         sodipodi:type="arc"
         sodipodi:cx="58.608856"
         sodipodi:cy="204.369"
         sodipodi:rx="7.0996304"
         sodipodi:ry="7.0996304"
         sodipodi:start="0"
         sodipodi:end="6.2816031"
         sodipodi:arc-type="slice"
         d="m 65.708487,204.369 a 7.0996304,7.0996304 0 0 1 -7.096823,7.09963 7.0996304,7.0996304 0 0 1 -7.102436,-7.09401 7.0996304,7.0996304 0 0 1 7.091203,-7.10524 7.0996304,7.0996304 0 0 1 7.108047,7.08839 l -7.099622,0.0112 z" />
      <path
         style="fill:#ffd42a;fill-opacity:1;stroke-width:0.0416524"
         id="path64"
         sodipodi:type="arc"
         sodipodi:cx="59.704796"
         sodipodi:cy="204.00369"
         sodipodi:rx="7.0996304"
         sodipodi:ry="7.0996304"
         sodipodi:start="0"
         sodipodi:end="6.2816031"
         sodipodi:arc-type="slice"
         d="m 66.804426,204.00369 a 7.0996304,7.0996304 0 0 1 -7.096822,7.09963 7.0996304,7.0996304 0 0 1 -7.102436,-7.09401 7.0996304,7.0996304 0 0 1 7.091203,-7.10524 7.0996304,7.0996304 0 0 1 7.108046,7.08839 l -7.099621,0.0112 z" />
    </g>
  </g>
  <g
     inkscape:groupmode="layer"
     id="layer2"
     inkscape:label="Layer 2"
     sodipodi:insensitive="true">
    <g
       id="g71">
      <g
         id="g70">
        <path
           style="fill:#999999;stroke-width:0.264583"
           id="path8"
           sodipodi:type="arc"
           sodipodi:cx="89.684502"
           sodipodi:cy="74.523987"
           sodipodi:rx="62.28598"
           sodipodi:ry="45.298897"
           sodipodi:start="0"
           sodipodi:end="6.1253242"
           sodipodi:open="true"
           sodipodi:arc-type="arc"
           d="M 151.97048,74.523987 A 62.28598,45.298897 0 0 1 92.141997,119.78761 62.28598,45.298897 0 0 1 27.592443,78.095742 62.28598,45.298897 0 0 1 82.327318,29.54221 62.28598,45.298897 0 0 1 151.196,67.402716" />
        <ellipse
           style="fill:#b3b3b3;fill-opacity:1;stroke-width:0.309678"
           id="path1"
           cx="96.077492"
           cy="73.428047"
           rx="59.546127"
           ry="45.664207" />
        <ellipse
           style="fill:#4d4d4d;stroke-width:0.308003"
           id="path2"
           cx="75.07196"
           cy="71.418823"
           rx="17.352398"
           ry="17.71771" />
        <ellipse
           style="fill:#4d4d4d;stroke-width:0.308003"
           id="ellipse2"
           cx="119.27491"
           cy="71.784134"
           rx="17.352398"
           ry="17.71771" />
        <ellipse
           style="fill:#1a1a1a;stroke-width:0.324832"
           id="path3"
           ry="16.621771"
           rx="16.621769"
           cy="71.418823"
           cx="77.629158" />
        <ellipse
           style="fill:#1a1a1a;stroke-width:0.324832"
           id="ellipse3"
           ry="16.621771"
           rx="16.621769"
           cy="71.053513"
           cx="121.8321" />
        <circle
           style="fill:#999999;fill-opacity:1;stroke-width:0.031929"
           id="circle68"
           cx="128.12177"
           cy="71.863464"
           r="5.3763838" />
        <circle
           style="fill:#999999;fill-opacity:1;stroke-width:0.031929"
           id="circle69"
           cx="83.553497"
           cy="71.863464"
           r="5.3763838" />
      </g>
      <g
         id="g69">
        <rect
           style="fill:#999999;stroke-width:0.264583"
           id="rect6"
           width="10.594095"
           height="16.804428"
           x="84.387451"
           y="114.34317" />
        <rect
           style="fill:#999999;stroke-width:0.264583"
           id="rect7"
           width="10.594095"
           height="16.804428"
           x="101.9225"
           y="113.24722" />
        <rect
           style="fill:#999999;stroke-width:0.264583"
           id="rect8"
           width="10.594095"
           height="16.804428"
           x="117.9963"
           y="111.42065" />
        <rect
           style="fill:#b3b3b3;stroke-width:0.264583"
           id="rect3"
           width="12.42066"
           height="18.996311"
           x="104.11439"
           y="111.05535"
           ry="0" />
        <rect
           style="fill:#b3b3b3;stroke-width:0.264583"
           id="rect4"
           width="12.42066"
           height="18.996311"
           x="86.944649"
           y="112.15129"
           ry="0" />
        <rect
           style="fill:#b3b3b3;stroke-width:0.264583"
           id="rect5"
           width="12.42066"
           height="18.996311"
           x="120.18819"
           y="109.22878"
           ry="0" />
        <circle
           style="fill:#b3b3b3;fill-opacity:1;stroke-width:0.031929"
           id="ellipse67"
           cx="85.014763"
           cy="71.863464"
           r="5.3763838" />
        <circle
           style="fill:#b3b3b3;fill-opacity:1;stroke-width:0.031929"
           id="circle67"
           cx="129.58302"
           cy="71.863464"
           r="5.3763838" />
      </g>
    </g>
  </g>
</svg>
